<svg width="1044" height="142" viewBox="0 0 1044 142" fill="none" xmlns="http://www.w3.org/2000/svg">
<path fill-rule="evenodd" clip-rule="evenodd" d="M51.7632 69.7323C23.7209 71.414 0.602505 72.7983 0.388612 72.8083C0.134304 72.8204 0 73.3435 0 74.3228C0 76.2262 1.23361 78.7776 2.69293 79.8926C3.44435 80.4665 9.11063 82.4608 21.5475 86.5282C31.3265 89.7266 39.7616 92.5688 40.292 92.8444C42.6995 94.0958 44.3562 97.2466 44.0528 99.9966C43.9412 101.009 41.7932 107.128 38.3977 116.108C35.3867 124.071 32.7905 131.177 32.6288 131.899C31.6644 136.203 35.3333 140.519 39.9431 140.506C42.2788 140.499 43.8165 139.751 45.7089 137.7C49.7561 133.313 102.527 71.4171 103.023 70.4746C103.344 69.8637 103.677 68.7418 103.763 67.9817C103.898 66.7727 103.845 66.6042 103.334 66.6369C103.012 66.6578 79.8054 68.0505 51.7632 69.7323Z" fill="#082D8F"/>
<path fill-rule="evenodd" clip-rule="evenodd" d="M52.0634 70.7734C80.1056 69.0917 103.224 67.7074 103.438 67.6974C103.692 67.6853 103.827 67.1622 103.827 66.1829C103.827 64.2795 102.593 61.7281 101.134 60.6131C100.382 60.0392 94.7159 58.0449 82.2791 53.9775C72.5 50.7791 64.065 47.9369 63.5346 47.6613C61.127 46.4099 59.4703 43.2591 59.7737 40.5091C59.8854 39.4968 62.0333 33.3778 65.4288 24.3981C68.4398 16.4348 71.036 9.32871 71.1977 8.60664C72.1621 4.30318 68.4933 -0.0136678 63.8834 3.25245e-05C61.5477 0.00657132 60.01 0.755106 58.1176 2.80611C54.0705 7.19239 1.2997 69.0886 0.803834 70.0311C0.482374 70.642 0.149409 71.7639 0.0639143 72.524C-0.0719446 73.733 -0.01847 73.9015 0.492944 73.8688C0.814404 73.8479 24.0211 72.4551 52.0634 70.7734Z" fill="#362BF6"/>
<path d="M140.573 113.66V28.6418H194.392V41.7914H155.513V64.1796H192.128V77.2725H155.513V100.511H194.958V113.66H140.573Z" fill="white"/>
<path d="M300.784 113.66H286.862V84.5841C286.862 79.4452 285.787 75.4587 283.637 72.6248C281.524 69.7531 278.524 68.3172 274.639 68.3172C270.715 68.3172 267.64 69.7531 265.414 72.6248C263.226 75.4965 262.132 79.483 262.132 84.5841V113.66H248.21V84.5841C248.21 79.4452 247.135 75.4587 244.985 72.6248C242.834 69.7531 239.835 68.3172 235.987 68.3172C232.025 68.3172 228.931 69.7531 226.706 72.6248C224.517 75.4965 223.423 79.483 223.423 84.5841V113.66H209.502V56.9814H220.65L221.16 66.6168C223.084 63.1027 225.63 60.4388 228.799 58.6251C232.006 56.7735 235.779 55.8478 240.118 55.8478C244.607 55.8478 248.474 56.8302 251.719 58.7951C255.001 60.7222 257.51 63.4995 259.246 67.1269C261.132 63.4239 263.716 60.6277 266.999 58.7384C270.281 56.8113 274.148 55.8478 278.6 55.8478C285.58 55.8478 291.012 58.0772 294.898 62.5359C298.822 66.9569 300.784 73.116 300.784 81.0133V113.66Z" fill="white"/>
<path d="M328.683 142H314.762V56.9814H327.042L327.721 64.9164C330.211 62.0825 333.211 59.872 336.719 58.285C340.228 56.6602 344.057 55.8478 348.207 55.8478C353.489 55.8478 358.205 57.1325 362.355 59.702C366.543 62.2714 369.825 65.7855 372.202 70.2443C374.617 74.6652 375.824 79.6908 375.824 85.3209C375.824 90.951 374.617 95.9955 372.202 100.454C369.825 104.875 366.543 108.37 362.355 110.94C358.205 113.509 353.489 114.794 348.207 114.794C344.322 114.794 340.719 114.095 337.399 112.697C334.078 111.299 331.173 109.334 328.683 106.802V142ZM345.208 102.211C348.377 102.211 351.188 101.493 353.64 100.057C356.13 98.5838 358.054 96.5812 359.413 94.0495C360.809 91.48 361.506 88.5516 361.506 85.2642C361.506 81.9768 360.809 79.0673 359.413 76.5357C358.017 73.9662 356.093 71.9635 353.64 70.5277C351.188 69.054 348.377 68.3172 345.208 68.3172C342.228 68.3172 339.53 68.9973 337.116 70.3576C334.701 71.6801 332.758 73.5128 331.287 75.8555C329.815 78.1605 328.948 80.8055 328.683 83.7906V86.9079C328.948 89.893 329.796 92.538 331.23 94.843C332.701 97.1479 334.644 98.9617 337.059 100.284C339.474 101.569 342.19 102.211 345.208 102.211Z" fill="white"/>
<path d="M401.007 113.66H387.086V56.9814H399.196L399.706 67.297C401.668 63.6695 404.309 60.8544 407.629 58.8518C410.986 56.8491 414.835 55.8478 419.173 55.8478C420.305 55.8478 421.456 55.9234 422.625 56.0745C423.833 56.2256 425.021 56.4524 426.191 56.7547L424.493 69.3374C422.154 68.6573 419.89 68.3172 417.702 68.3172C414.382 68.3172 411.458 69.0918 408.93 70.641C406.44 72.1903 404.497 74.3441 403.101 77.1024C401.705 79.823 401.007 82.9971 401.007 86.6245V113.66Z" fill="white"/>
<path d="M485.725 107.086C478.67 112.225 470.954 114.794 462.579 114.794C456.505 114.794 451.053 113.472 446.224 110.827C441.395 108.181 437.565 104.573 434.736 100.001C431.944 95.4287 430.548 90.252 430.548 84.4707C430.548 78.9917 431.812 74.0984 434.34 69.7908C436.905 65.4832 440.395 62.0825 444.809 59.5886C449.261 57.0947 454.279 55.8478 459.863 55.8478C465.673 55.8478 470.766 57.227 475.142 59.9854C479.556 62.706 482.99 66.5035 485.442 71.3779C487.894 76.2145 489.12 81.8446 489.12 88.2682V90.082H445.545C446.224 92.6514 447.412 94.9186 449.11 96.8834C450.846 98.8483 452.996 100.379 455.562 101.474C458.127 102.57 461.013 103.118 464.22 103.118C470.256 103.118 475.84 101.153 480.971 97.2235L485.725 107.086ZM444.979 81.9202H476.217C475.916 79.0862 475.048 76.6112 473.614 74.4952C472.218 72.3792 470.389 70.7355 468.125 69.5641C465.899 68.355 463.39 67.7504 460.598 67.7504C457.769 67.7504 455.241 68.355 453.015 69.5641C450.789 70.7733 448.978 72.4548 447.582 74.6086C446.186 76.7246 445.318 79.1618 444.979 81.9202Z" fill="white"/>
<path d="M555.672 113.66H541.75V83.1104C541.75 78.5383 540.6 74.9486 538.298 72.3414C536.035 69.7342 532.884 68.4305 528.848 68.4305C526.018 68.4305 523.509 69.0918 521.321 70.4143C519.133 71.699 517.416 73.5506 516.171 75.9689C514.926 78.3872 514.304 81.2022 514.304 84.414V113.66H500.382V56.9814H511.87L512.323 66.1067C514.36 62.7815 517.133 60.2499 520.642 58.5117C524.15 56.7358 528.15 55.8478 532.639 55.8478C539.77 55.8478 545.391 58.0205 549.503 62.3659C553.616 66.7113 555.672 72.6626 555.672 80.2198V113.66Z" fill="white"/>
<path d="M626.921 113.66H614.64L613.905 105.725C611.452 108.559 608.472 110.789 604.963 112.414C601.454 114.001 597.625 114.794 593.475 114.794C588.193 114.794 583.458 113.509 579.271 110.94C575.083 108.37 571.782 104.875 569.367 100.454C566.99 95.9955 565.802 90.951 565.802 85.3209C565.802 79.6908 566.99 74.6652 569.367 70.2443C571.782 65.7855 575.083 62.2714 579.271 59.702C583.458 57.1325 588.193 55.8478 593.475 55.8478C597.399 55.8478 601.021 56.5468 604.341 57.9449C607.661 59.343 610.547 61.3079 612.999 63.8395V28.6418H626.921V113.66ZM596.588 102.268C599.606 102.268 602.36 101.588 604.85 100.228C607.34 98.8294 609.321 96.9212 610.792 94.5029C612.263 92.0846 612.999 89.3262 612.999 86.2278V84.244C612.999 81.1833 612.263 78.4627 610.792 76.0822C609.321 73.6639 607.34 71.7746 604.85 70.4143C602.36 69.0162 599.606 68.3172 596.588 68.3172C593.418 68.3172 590.589 69.0729 588.099 70.5843C585.609 72.058 583.647 74.0796 582.213 76.649C580.78 79.1807 580.063 82.0524 580.063 85.2642C580.063 88.5138 580.78 91.4234 582.213 93.9928C583.647 96.5623 585.609 98.5838 588.099 100.057C590.589 101.531 593.418 102.268 596.588 102.268Z" fill="white"/>
<path d="M649.048 41.9614C647.086 41.9614 645.426 41.2813 644.068 39.921C642.747 38.5229 642.087 36.8414 642.087 34.8765C642.087 32.9494 642.747 31.3057 644.068 29.9454C645.426 28.5474 647.086 27.8483 649.048 27.8483C651.047 27.8483 652.726 28.5474 654.085 29.9454C655.443 31.3057 656.122 32.9494 656.122 34.8765C656.122 36.8414 655.443 38.5229 654.085 39.921C652.726 41.2813 651.047 41.9614 649.048 41.9614ZM656.009 113.66H642.087V56.9814H656.009V113.66Z" fill="white"/>
<path d="M762.57 113.66H748.649V84.5841C748.649 79.4452 747.574 75.4587 745.423 72.6248C743.31 69.7531 740.311 68.3172 736.425 68.3172C732.501 68.3172 729.427 69.7531 727.201 72.6248C725.013 75.4965 723.918 79.483 723.918 84.5841V113.66H709.997V84.5841C709.997 79.4452 708.922 75.4587 706.771 72.6248C704.621 69.7531 701.621 68.3172 697.773 68.3172C693.812 68.3172 690.718 69.7531 688.492 72.6248C686.304 75.4965 685.21 79.483 685.21 84.5841V113.66H671.288V56.9814H682.437L682.946 66.6168C684.87 63.1027 687.417 60.4388 690.586 58.6251C693.793 56.7735 697.566 55.8478 701.904 55.8478C706.394 55.8478 710.261 56.8302 713.506 58.7951C716.788 60.7222 719.297 63.4995 721.032 67.1269C722.919 63.4239 725.503 60.6277 728.785 58.7384C732.068 56.8113 735.935 55.8478 740.387 55.8478C747.366 55.8478 752.799 58.0772 756.685 62.5359C760.609 66.9569 762.57 73.116 762.57 81.0133V113.66Z" fill="white"/>
<path d="M783.622 41.9614C781.661 41.9614 780.001 41.2813 778.642 39.921C777.322 38.5229 776.662 36.8414 776.662 34.8765C776.662 32.9494 777.322 31.3057 778.642 29.9454C780.001 28.5474 781.661 27.8483 783.622 27.8483C785.622 27.8483 787.301 28.5474 788.659 29.9454C790.017 31.3057 790.696 32.9494 790.696 34.8765C790.696 36.8414 790.017 38.5229 788.659 39.921C787.301 41.2813 785.622 41.9614 783.622 41.9614ZM790.583 113.66H776.662V56.9814H790.583V113.66Z" fill="white"/>
<path d="M857.191 107.086C850.136 112.225 842.421 114.794 834.045 114.794C827.971 114.794 822.52 113.472 817.691 110.827C812.861 108.181 809.032 104.573 806.202 100.001C803.411 95.4287 802.015 90.252 802.015 84.4707C802.015 78.9917 803.279 74.0984 805.806 69.7908C808.372 65.4832 811.862 62.0825 816.276 59.5886C820.728 57.0947 825.745 55.8478 831.329 55.8478C837.139 55.8478 842.232 57.227 846.609 59.9854C851.023 62.706 854.456 66.5035 856.908 71.3779C859.361 76.2145 860.587 81.8446 860.587 88.2682V90.082H817.011C817.691 92.6514 818.879 94.9186 820.577 96.8834C822.312 98.8483 824.463 100.379 827.028 101.474C829.594 102.57 832.48 103.118 835.687 103.118C841.723 103.118 847.307 101.153 852.438 97.2235L857.191 107.086ZM816.446 81.9202H847.684C847.382 79.0862 846.514 76.6112 845.081 74.4952C843.685 72.3792 841.855 70.7355 839.591 69.5641C837.366 68.355 834.857 67.7504 832.065 67.7504C829.235 67.7504 826.707 68.355 824.482 69.5641C822.256 70.7733 820.445 72.4548 819.049 74.6086C817.653 76.7246 816.785 79.1618 816.446 81.9202Z" fill="white"/>
<path d="M927.139 113.66H913.217V83.1104C913.217 78.5383 912.066 74.9486 909.765 72.3414C907.501 69.7342 904.351 68.4305 900.314 68.4305C897.485 68.4305 894.976 69.0918 892.787 70.4143C890.599 71.699 888.883 73.5506 887.638 75.9689C886.393 78.3872 885.77 81.2022 885.77 84.414V113.66H871.849V56.9814H883.337L883.789 66.1067C885.827 62.7815 888.6 60.2499 892.108 58.5117C895.617 56.7358 899.616 55.8478 904.106 55.8478C911.236 55.8478 916.858 58.0205 920.97 62.3659C925.082 66.7113 927.139 72.6626 927.139 80.2198V113.66Z" fill="white"/>
<path d="M977.279 112.187C973.129 113.925 969.111 114.794 965.225 114.794C961.263 114.794 957.773 113.944 954.755 112.243C951.775 110.543 949.436 108.181 947.738 105.159C946.078 102.098 945.248 98.546 945.248 94.5029V69.4508H935.344V56.9814H945.983V42.8116H959.169V56.9814H975.298V69.4508H959.169V91.9524C959.169 95.1642 960.037 97.6958 961.773 99.5474C963.546 101.399 965.753 102.325 968.394 102.325C970.733 102.325 973.053 101.607 975.354 100.171L977.279 112.187Z" fill="white"/>
<path d="M1014.01 114.794C1008.27 114.794 1003.12 113.509 998.557 110.94C994.03 108.37 990.446 104.875 987.805 100.454C985.201 95.9955 983.9 90.951 983.9 85.3209C983.9 79.6908 985.201 74.6652 987.805 70.2443C990.446 65.7855 994.03 62.2714 998.557 59.702C1003.12 57.1325 1008.27 55.8478 1014.01 55.8478C1019.78 55.8478 1024.93 57.1325 1029.46 59.702C1033.98 62.2714 1037.53 65.7855 1040.1 70.2443C1042.7 74.6652 1044 79.6908 1044 85.3209C1044 90.951 1042.7 95.9955 1040.1 100.454C1037.53 104.875 1033.98 108.37 1029.46 110.94C1024.93 113.509 1019.78 114.794 1014.01 114.794ZM1013.95 102.268C1016.97 102.268 1019.67 101.531 1022.04 100.057C1024.42 98.5838 1026.29 96.5623 1027.65 93.9928C1029.04 91.4234 1029.74 88.5138 1029.74 85.2642C1029.74 82.0524 1029.04 79.1807 1027.65 76.649C1026.29 74.0796 1024.42 72.058 1022.04 70.5843C1019.67 69.1107 1016.97 68.3739 1013.95 68.3739C1010.97 68.3739 1008.27 69.1107 1005.86 70.5843C1003.48 72.058 1001.59 74.0796 1000.2 76.649C998.84 79.1807 998.161 82.0524 998.161 85.2642C998.161 88.5138 998.84 91.4234 1000.2 93.9928C1001.59 96.5623 1003.48 98.5838 1005.86 100.057C1008.27 101.531 1010.97 102.268 1013.95 102.268Z" fill="white"/>
</svg>
