<svg
  width="512"
  height="512"
  viewBox="0 0 334 452"
  fill="none"
  xmlns="http://www.w3.org/2000/svg"
>
  <path
    fill-rule="evenodd"
    clip-rule="evenodd"
    d="M167.466 227.296C257.666 221.895 332.028 217.449 332.716 217.417C333.534 217.378 333.966 215.698 333.966 212.553C333.966 206.44 329.998 198.246 325.304 194.665C322.887 192.822 304.661 186.417 264.657 173.354C233.202 163.082 206.07 153.954 204.364 153.069C196.62 149.05 191.291 138.931 192.267 130.099C192.626 126.848 199.535 107.196 210.457 78.3571C220.142 52.7821 228.493 29.9601 229.013 27.6411C232.115 13.8201 220.314 -0.0438932 205.486 0.000106812C197.973 0.0211068 193.027 2.4251 186.94 9.0121C173.922 23.0991 4.18057 221.885 2.58557 224.912C1.55157 226.874 0.480566 230.477 0.205566 232.918C-0.231434 236.801 -0.0594287 237.342 1.58557 237.237C2.61957 237.17 77.2656 232.697 167.466 227.296Z"
    fill="#082D8F"></path>
  <path
    fill-rule="evenodd"
    clip-rule="evenodd"
    d="M166.5 223.953C76.3 229.354 1.938 233.8 1.25 233.832C0.432 233.871 0 235.551 0 238.696C0 244.809 3.968 253.003 8.662 256.584C11.079 258.427 29.305 264.832 69.309 277.895C100.764 288.167 127.896 297.295 129.602 298.18C137.346 302.199 142.675 312.318 141.699 321.15C141.34 324.401 134.431 344.053 123.509 372.892C113.824 398.467 105.473 421.289 104.953 423.608C101.851 437.429 113.652 451.293 128.48 451.249C135.993 451.228 140.939 448.824 147.026 442.237C160.044 428.15 329.785 229.364 331.38 226.337C332.414 224.375 333.485 220.772 333.76 218.331C334.197 214.448 334.025 213.907 332.38 214.012C331.346 214.079 256.7 218.552 166.5 223.953Z"
    fill="#322BC3"></path>
</svg>
